<?xml version="1.0" encoding="UTF-8" standalone="no"?>
<svg
   id="a"
   viewBox="0 0 98.685 23.287"
   version="1.1"
   sodipodi:docname="VadenLogo.svg"
   inkscape:version="1.1.2 (b8e25be833, 2022-02-05)"
   xmlns:inkscape="http://www.inkscape.org/namespaces/inkscape"
   xmlns:sodipodi="http://sodipodi.sourceforge.net/DTD/sodipodi-0.dtd"
   xmlns="http://www.w3.org/2000/svg"
   xmlns:svg="http://www.w3.org/2000/svg">
  <defs
     id="defs73" />
  <sodipodi:namedview
     id="namedview71"
     pagecolor="#505050"
     bordercolor="#eeeeee"
     borderopacity="1"
     inkscape:pageshadow="0"
     inkscape:pageopacity="0"
     inkscape:pagecheckerboard="0"
     showgrid="false"
     inkscape:zoom="23.782743"
     inkscape:cx="49.3425"
     inkscape:cy="11.647101"
     inkscape:window-width="2560"
     inkscape:window-height="1369"
     inkscape:window-x="-8"
     inkscape:window-y="-8"
     inkscape:window-maximized="1"
     inkscape:current-layer="a" />
  <polygon
     points="16.382 .001 13.835 .001 11.655 4.314 9.491 0 6.905 0 11.675 8.9 16.382 .001"
     style="fill:#e20613;"
     id="polygon42" />
  <polygon
     points="23.226 6.761 21.426 4.96 16.834 6.469 18.355 1.889 16.526 .06 13.605 9.725 23.226 6.761"
     style="fill:#3c3c3b;"
     id="polygon44" />
  <polygon
     points="23.286 16.382 23.286 13.835 18.973 11.656 23.286 9.491 23.287 6.905 14.387 11.675 23.286 16.382"
     style="fill:#3c3c3b;"
     id="polygon46" />
  <polygon
     points="16.525 23.226 18.326 21.426 16.817 16.834 21.398 18.355 23.227 16.526 13.561 13.605 16.525 23.226"
     style="fill:#3c3c3b;"
     id="polygon48" />
  <polygon
     points="6.905 23.286 9.452 23.286 11.631 18.973 13.796 23.286 16.381 23.287 11.612 14.387 6.905 23.286"
     style="fill:#3c3c3b;"
     id="polygon50" />
  <polygon
     points=".061 16.525 1.861 18.326 6.452 16.817 4.932 21.398 6.76 23.227 9.681 13.562 .061 16.525"
     style="fill:#3c3c3b;"
     id="polygon52" />
  <polygon
     points=".001 6.905 .001 9.452 4.314 11.631 0 13.796 0 16.381 8.9 11.612 .001 6.905"
     style="fill:#3c3c3b;"
     id="polygon54" />
  <polygon
     points="6.761 .061 4.96 1.861 6.469 6.453 1.889 4.932 .06 6.76 9.725 9.681 6.761 .061"
     style="fill:#3c3c3b;"
     id="polygon56" />
  <polygon
     points="27.129 2.847 27.129 5.158 28.273 5.158 30.927 12.948 37.463 12.948 40.322 5.154 41.466 5.154 41.466 2.847 34.481 2.847 34.481 5.154 35.584 5.154 34.321 9.818 32.451 2.847 27.129 2.847"
     style="fill:#3c3c3b; fill-rule:evenodd;"
     id="polygon58" />
  <path
     d="M47.674,4.821l-.657,3.806h1.488l-.831-3.806ZM40.388,10.645h1.196l2.493-7.798h7.302l2.497,7.798h1.196l.002,2.303h-.096l-5.604-.028-.524-2.275h-2.241l-.533,2.303h-5.691l.003-2.303Z"
     style="fill:#3c3c3b; fill-rule:evenodd;"
     id="path60" />
  <path
     d="M98.685,16.049h-1.704l-.922,2.417-.921-2.417h-1.705l1.809,4.391h1.635l1.809-4.391ZM93.218,16.049h-1.626v4.391h1.626v-4.391ZM92.401,13.875c-.181.001-.339.044-.477.126-.136.081-.242.189-.319.322-.077.133-.116.28-.118.439.002.169.041.32.118.453.077.133.182.238.319.316.137.077.296.116.477.117.178-.001.336-.041.472-.117.136-.078.244-.183.322-.316.078-.133.117-.284.118-.453-.001-.16-.04-.306-.118-.439-.078-.134-.186-.241-.322-.322-.136-.082-.294-.125-.472-.126M91.055,19.022c-.05.026-.106.05-.169.071-.062.02-.128.038-.194.049-.067.013-.131.019-.193.019-.166.001-.294-.04-.385-.122-.09-.082-.135-.219-.136-.409v-1.313h1.165v-1.27h-1.165v-1.261h-1.626v1.261h-.67v1.27h.67v1.495c.001.37.069.684.204.946.136.261.336.461.6.6.262.139.586.209.969.21.202-.001.384-.02.545-.056.161-.036.3-.078.417-.128.117-.049.215-.096.29-.138l-.322-1.226ZM85.319,19.214c-.164-.002-.315-.045-.45-.129-.135-.084-.242-.197-.321-.342-.081-.145-.124-.311-.125-.494.001-.187.044-.354.125-.497.079-.144.187-.259.321-.342.135-.082.285-.125.45-.126.164.001.314.044.449.126.135.083.242.197.323.342.079.144.122.311.123.497-.001.184-.044.349-.123.494-.081.145-.189.258-.323.342-.135.084-.286.128-.449.129M85.319,15.927c-.338.001-.654.056-.949.167-.296.11-.557.268-.783.472-.227.205-.404.45-.533.733-.128.284-.193.6-.196.949.003.346.068.663.196.945.129.283.306.526.533.73.226.203.487.361.783.471.295.11.612.165.949.166.338-.001.653-.056.949-.166.296-.11.557-.268.785-.471.226-.204.403-.447.531-.73.128-.283.193-.599.196-.945-.003-.349-.068-.665-.196-.949-.129-.284-.305-.529-.531-.733-.228-.204-.489-.362-.785-.472-.295-.11-.611-.165-.949-.167M80.948,15.918c-.226,0-.433.032-.623.094-.189.063-.36.149-.511.264-.152.114-.284.25-.397.407-.093-.162-.21-.302-.352-.415-.14-.114-.3-.201-.478-.261-.178-.06-.371-.09-.579-.09-.286.001-.534.052-.747.152-.212.1-.393.238-.539.413v-.435h-1.626v4.391h1.626v-2.183c0-.187.029-.345.086-.477.056-.133.134-.233.237-.304.103-.069.225-.106.364-.106.121,0,.226.027.319.082.093.055.165.132.217.232.054.1.08.217.081.354v2.4h1.627v-2.183c.001-.187.03-.345.09-.477.059-.133.14-.233.246-.304.106-.069.227-.106.368-.106.117,0,.222.027.313.082.091.055.162.132.216.232.052.1.078.217.08.354v2.4h1.626v-2.739c-.001-.271-.042-.515-.123-.733-.081-.219-.196-.406-.344-.562-.146-.157-.32-.277-.52-.359-.2-.084-.419-.127-.656-.128M72.35,19.214c-.164-.002-.314-.045-.449-.129-.135-.084-.242-.197-.321-.342-.081-.145-.124-.311-.125-.494.001-.187.044-.354.125-.497.079-.144.187-.259.321-.342.135-.082.285-.125.449-.126.164.001.314.044.45.126.135.083.242.197.323.342.079.144.122.311.123.497-.001.184-.043.349-.123.494-.081.145-.189.258-.323.342-.135.084-.286.128-.45.129M72.35,15.927c-.338.001-.653.056-.949.167-.296.11-.557.268-.783.472-.227.205-.404.45-.533.733-.128.284-.193.6-.196.949.003.346.068.663.196.945.129.283.306.526.533.73.226.203.487.361.783.471.295.11.611.165.949.166.338-.001.654-.056.949-.166.296-.11.557-.268.785-.471.226-.204.403-.447.531-.73.128-.283.193-.599.196-.945-.003-.349-.069-.665-.196-.949-.129-.284-.306-.529-.531-.733-.228-.204-.489-.362-.785-.472-.295-.11-.611-.165-.949-.167M69.753,19.022c-.051.026-.106.05-.17.071-.062.02-.127.038-.194.049-.067.013-.131.019-.193.019-.166.001-.294-.04-.386-.122-.09-.082-.135-.219-.136-.409v-1.313h1.165v-1.27h-1.165v-1.261h-1.627v1.261h-.67v1.27h.67v1.495c.001.37.07.684.204.946.136.261.336.461.6.6.262.139.587.209.969.21.203-.001.384-.02.545-.056.161-.036.3-.078.417-.128.117-.049.214-.096.29-.138l-.321-1.226ZM64.016,19.214c-.164-.002-.314-.045-.449-.129-.135-.084-.242-.197-.322-.342-.081-.145-.123-.311-.124-.494.001-.187.043-.354.124-.497.08-.144.187-.259.322-.342.135-.082.285-.125.449-.126.164.001.314.044.45.126.135.083.241.197.323.342.08.144.122.311.123.497-.001.184-.043.349-.123.494-.081.145-.188.258-.323.342-.135.084-.286.128-.45.129M64.016,15.927c-.338.001-.653.056-.949.167-.296.11-.557.268-.783.472-.228.205-.405.45-.533.733-.128.284-.193.6-.196.949.003.346.068.663.196.945.129.283.306.526.533.73.226.203.487.361.783.471.296.11.611.165.949.166.338-.001.653-.056.949-.166.296-.11.557-.268.784-.471.226-.204.403-.447.532-.73.128-.283.193-.599.196-.945-.003-.349-.068-.665-.196-.949-.129-.284-.306-.529-.532-.733-.227-.204-.488-.362-.784-.472-.296-.11-.611-.165-.949-.167"
     style="fill:#3c3c3b;"
     id="path62" />
  <path
     d="M62.108,10.582h2.061v-5.428h-2.061v5.428ZM56.113,12.948v-2.303h1.146v-5.473l-1.146-.022v-2.302h9.316c3.912,0,3.545,2.476,3.545,2.476v5.099c0,1.927-1.581,2.472-3.255,2.525h-9.606Z"
     style="fill:#3c3c3b; fill-rule:evenodd;"
     id="path64" />
  <polygon
     points="71.39 5.143 70.28 5.143 70.28 2.847 82.33 2.847 82.33 6.203 78.214 6.203 78.214 5.154 76.129 5.154 76.129 6.829 79.487 6.829 79.487 8.814 76.129 8.813 76.129 10.582 78.214 10.582 78.214 9.41 82.562 9.41 82.562 12.948 70.28 12.948 70.28 10.583 71.389 10.582 71.39 5.143"
     style="fill:#3c3c3b; fill-rule:evenodd;"
     id="polygon66" />
  <polygon
     points="89.373 2.846 92.999 7.699 92.999 2.846 98.682 2.846 98.682 5.153 97.49 5.153 97.49 10.643 98.685 10.643 98.685 12.948 93.049 12.948 89.482 8.06 89.482 12.948 83.762 12.948 83.762 10.642 84.906 10.642 84.906 5.154 83.778 5.154 83.778 2.846 89.373 2.846"
     style="fill:#3c3c3b; fill-rule:evenodd;"
     id="polygon68" />
  <path
     style="fill:#000000;stroke-width:0.0420473"
     d="M 29.618156,9.0507571 28.289504,5.1507936 27.715516,5.1390952 27.141529,5.1273968 V 3.9933064 2.859216 h 2.646146 c 2.483621,0 2.647514,0.00452 2.668422,0.073583 0.01225,0.040471 0.402054,1.4926789 0.866227,3.2271298 1.041134,3.8903542 0.973269,3.6482718 1.011413,3.6077958 0.02822,-0.029942 1.259298,-4.5352934 1.259298,-4.6086159 0,-0.016136 -0.245977,-0.029339 -0.546615,-0.029339 H 34.499805 V 3.994493 2.859216 h 3.468902 3.468902 V 3.994493 5.1297699 H 40.874555 40.311503 L 40.130361,5.6238256 C 40.030734,5.8955563 39.387,7.6505052 38.699843,9.5237122 l -1.249377,3.4058308 -3.251828,0.01059 -3.251829,0.01059 z"
     id="path229" />
  <path
     style="fill:#000000;stroke-width:0.0420473"
     d="m 40.386426,11.81529 v -1.135277 h 0.602263 0.602263 l 1.086119,-3.3953192 c 0.597365,-1.8674255 1.159571,-3.6272091 1.249345,-3.9106304 l 0.163226,-0.5153112 3.640674,0.010744 3.640675,0.010744 1.226118,3.8263038 c 0.674364,2.104467 1.239109,3.859415 1.254988,3.899886 0.02559,0.06521 0.096,0.07358 0.618853,0.07358 h 0.589982 l 1.4e-5,1.124765 1.5e-5,1.124765 -2.826898,-0.01322 c -1.554793,-0.0073 -2.832123,-0.01844 -2.83851,-0.02483 -0.0064,-0.0064 -0.128406,-0.516044 -0.271152,-1.132571 l -0.259539,-1.120957 -1.13823,1.27e-4 -1.13823,1.26e-4 -0.140783,0.620076 c -0.07743,0.341042 -0.197418,0.861322 -0.26664,1.156179 l -0.125858,0.536094 h -2.834347 -2.834348 z m 8.115128,-3.2226941 c 0,-0.038031 -0.179752,-0.8902005 -0.399449,-1.8937101 -0.219697,-1.0035097 -0.399449,-1.8364654 -0.399449,-1.8510129 0,-0.014547 -0.01281,-0.013639 -0.02847,0.00202 -0.03615,0.036153 -0.678558,3.7378621 -0.656047,3.7803156 0.0092,0.017345 0.346728,0.031536 0.750068,0.031536 0.652472,0 0.733346,-0.00763 0.733346,-0.069147 z"
     id="path268" />
  <path
     style="fill:#000000;stroke-width:0.0420473"
     d="m 56.140146,12.922535 c -0.01542,-0.01542 -0.02803,-0.525758 -0.02803,-1.13409 v -1.106059 l 0.578151,-0.0117 0.57815,-0.0117 0.01081,-2.7378291 0.01082,-2.7378293 -0.195384,-0.02678 c -0.107461,-0.014729 -0.372495,-0.02678 -0.588965,-0.02678 H 56.112114 V 3.994493 2.859216 h 4.809961 c 4.948108,0 5.355591,0.011563 6.038241,0.1713426 0.431093,0.1009005 1.042338,0.3925856 1.309547,0.6249131 0.2438,0.2119744 0.477284,0.5597514 0.58756,0.8751778 0.08182,0.2340354 0.08437,0.3388766 0.08009,3.2984323 -0.0048,3.3540912 -8.41e-4,3.2960192 -0.261129,3.7843732 -0.176752,0.33162 -0.60012,0.721837 -0.977712,0.901155 -0.414161,0.196684 -1.025039,0.342157 -1.64987,0.392894 -0.586348,0.04761 -9.862004,0.06168 -9.908657,0.01503 z M 64.185195,7.8628441 V 5.1297699 H 63.134013 62.08283 v 2.7330742 2.7330739 h 1.051183 1.051182 z"
     id="path307" />
  <path
     style="fill:#000000;stroke-width:0.0420473"
     d="m 70.282053,11.773242 v -1.177324 h 0.567638 0.567639 V 7.8628441 5.1297699 H 70.849691 70.282053 V 3.994493 2.859216 h 6.012763 6.012763 V 4.5200841 6.1809523 H 80.268285 78.228991 V 5.6553611 5.1297699 H 77.177809 76.126627 V 5.9917395 6.853709 h 1.660868 1.660868 v 0.9670878 0.9670877 h -1.660868 -1.660868 v 0.9040169 0.9040166 h 1.051182 1.051182 V 10.007256 9.4185939 h 2.165436 2.165436 v 1.7659861 1.765987 h -6.138905 -6.138905 z"
     id="path346" />
  <path
     style="fill:#000000;stroke-width:0.0420473"
     d="m 83.779234,11.794266 v -1.156301 h 0.567639 0.567638 V 7.8838677 5.1297699 H 84.346873 83.779234 V 3.994493 2.859216 h 2.791267 2.791266 l 1.8024,2.4165475 c 0.991321,1.3291011 1.816592,2.4170749 1.833936,2.4177195 0.01735,6.446e-4 0.03154,-1.0868019 0.03154,-2.4165476 V 2.859216 h 2.817169 2.817168 v 1.135277 1.1352769 h -0.588662 -0.588662 v 2.7751215 2.7751216 h 0.588662 0.588662 v 1.135575 1.135575 l -2.802188,-0.01081 -2.802189,-0.01081 -1.763898,-2.417719 c -0.970143,-1.3297461 -1.781039,-2.4240269 -1.80199,-2.4317354 -0.02248,-0.00827 -0.03809,0.9868256 -0.03809,2.4282314 v 2.442247 H 86.617433 83.77924 Z"
     id="path385" />
  <path
     style="fill:#000000;stroke-width:0.0420473"
     d="m 95.227899,20.362313 c -0.01557,-0.04097 -0.418534,-1.020558 -0.895481,-2.176858 l -0.867175,-2.102365 0.819822,-0.01143 c 0.525311,-0.0073 0.829363,0.004 0.846381,0.03155 0.01461,0.02364 0.224025,0.563303 0.465372,1.199262 0.241347,0.635958 0.4494,1.156288 0.46234,1.156288 0.01294,0 0.228426,-0.539256 0.478859,-1.198348 l 0.455333,-1.198348 h 0.833993 c 0.650098,0 0.829474,0.01159 0.813492,0.05256 -0.01128,0.02891 -0.414719,1.008083 -0.896541,2.175947 l -0.876039,2.123388 -0.806025,0.01142 c -0.738823,0.01047 -0.808384,0.0052 -0.834331,-0.06307 z"
     id="path424" />
  <path
     style="fill:#000000;stroke-width:0.0420473"
     d="m 91.600031,18.248526 v -2.18646 h 0.798898 0.798899 v 2.18646 2.186459 h -0.798899 -0.798898 z"
     id="path463" />
  <path
     style="fill:#000000;stroke-width:0.0420473"
     d="m 92.15693,15.602503 c -0.346111,-0.08717 -0.603028,-0.386657 -0.632063,-0.736783 -0.04557,-0.549575 0.321665,-0.954147 0.870641,-0.959146 0.503322,-0.0046 0.886415,0.363507 0.886415,0.851702 0,0.34263 -0.169634,0.626742 -0.465583,0.779783 -0.143905,0.07442 -0.486776,0.107925 -0.65941,0.06444 z"
     id="path502" />
  <path
     style="fill:#000000;stroke-width:0.0420473"
     d="M 89.711815,20.516145 C 89.354969,20.452858 89.016957,20.28 88.803213,20.05149 88.43601,19.65892 88.362389,19.338968 88.362389,18.135685 v -0.854247 h -0.336378 -0.336378 v -0.609686 -0.609686 h 0.336378 0.336378 v -0.630709 -0.630709 h 0.798899 0.798898 v 0.630709 0.630709 h 0.588663 0.588662 v 0.6085 0.608499 l -0.578151,0.0117 -0.57815,0.0117 -0.01096,0.735827 c -0.0094,0.633359 -6.51e-4,0.75624 0.06307,0.882409 0.125991,0.24946 0.412871,0.317704 0.820209,0.195113 l 0.191905,-0.05776 0.128001,0.48874 c 0.0704,0.268807 0.139782,0.538023 0.154181,0.598259 0.02409,0.100785 0.0083,0.116533 -0.197594,0.197485 -0.469402,0.184524 -0.994325,0.248781 -1.418208,0.173605 z"
     id="path541" />
  <path
     style="fill:#000000;stroke-width:0.0420473"
     d="m 84.972432,20.514625 c -0.316631,-0.03624 -0.768702,-0.187316 -1.020891,-0.341164 -0.261783,-0.159701 -0.63584,-0.546545 -0.783099,-0.809869 -0.18911,-0.33816 -0.272201,-0.678541 -0.272201,-1.115066 0,-0.67488 0.203133,-1.162486 0.673429,-1.616519 1.227465,-1.185017 3.428704,-0.764814 4.033673,0.770003 0.290592,0.737239 0.162543,1.602077 -0.334721,2.260699 -0.297798,0.39443 -0.973725,0.767808 -1.513165,0.835862 -0.376256,0.04747 -0.488478,0.04977 -0.783025,0.01605 z m 0.738586,-1.381886 c 0.199105,-0.101576 0.410632,-0.350494 0.465542,-0.547835 0.0585,-0.210237 0.05096,-0.568587 -0.01528,-0.726666 -0.08441,-0.201423 -0.268785,-0.401344 -0.460204,-0.498999 -0.133618,-0.06817 -0.22668,-0.08309 -0.435343,-0.0698 -0.35,0.02229 -0.577317,0.174181 -0.743523,0.496828 -0.103655,0.20122 -0.116664,0.266234 -0.100907,0.504307 0.02836,0.428419 0.23414,0.740802 0.578561,0.878259 0.180001,0.07184 0.534901,0.05383 0.711156,-0.03609 z"
     id="path580" />
  <path
     style="fill:#000000;stroke-width:0.0420473"
     d="m 75.117491,18.248526 v -2.18646 h 0.798899 0.798899 v 0.218104 0.218103 l 0.11563,-0.107724 c 0.475549,-0.443033 1.197091,-0.571404 1.839569,-0.32728 0.186926,0.07103 0.317761,0.162423 0.505029,0.352792 l 0.252746,0.256931 0.211211,-0.210856 c 0.509215,-0.50836 1.345571,-0.667264 1.989954,-0.378082 0.330939,0.148516 0.672981,0.506496 0.811239,0.84904 0.09612,0.238153 0.09843,0.277208 0.110535,1.872558 l 0.01236,1.629333 h -0.776518 -0.776519 l -0.01372,-1.292954 c -0.01246,-1.173963 -0.02115,-1.307923 -0.09445,-1.455596 -0.108028,-0.217639 -0.285864,-0.320549 -0.554274,-0.320745 -0.2808,-2.06e-4 -0.466981,0.12261 -0.605392,0.399353 -0.103769,0.207476 -0.105302,0.225969 -0.119415,1.440059 l -0.0143,1.229883 H 78.837596 78.06621 l -0.01322,-1.313978 c -0.01177,-1.169924 -0.02151,-1.329163 -0.08884,-1.452491 -0.232284,-0.425452 -0.883074,-0.406331 -1.141474,0.03354 -0.08122,0.138258 -0.08713,0.224099 -0.09912,1.439977 l -0.01275,1.292954 H 75.91415 75.117494 Z"
     id="path619" />
  <path
     style="fill:#000000;stroke-width:0.0420473"
     d="m 72.048039,20.517457 c -1.168241,-0.11777 -2.03576,-0.963746 -2.129862,-2.076972 -0.05579,-0.659976 0.173515,-1.302318 0.629435,-1.763221 0.472976,-0.478146 1.041466,-0.710394 1.752711,-0.716045 0.777873,-0.0062 1.336088,0.20893 1.832937,0.706325 0.450872,0.451368 0.647853,0.93207 0.647853,1.580982 0,0.653028 -0.197761,1.133975 -0.648354,1.576773 -0.550241,0.540723 -1.257517,0.775549 -2.08472,0.692158 z m 0.700164,-1.389028 c 0.371,-0.179599 0.581111,-0.663087 0.481531,-1.108058 -0.10207,-0.456094 -0.439399,-0.738933 -0.881291,-0.738933 -0.516726,0 -0.891975,0.405937 -0.894663,0.967828 -0.0019,0.398131 0.185694,0.714779 0.531188,0.896598 0.182693,0.09614 0.545745,0.08785 0.763235,-0.01743 z"
     id="path658" />
  <path
     style="fill:#000000;stroke-width:0.0420473"
     d="m 68.389924,20.513793 c -0.318415,-0.05164 -0.716981,-0.255744 -0.90432,-0.463106 -0.346938,-0.38402 -0.440239,-0.821044 -0.440848,-2.064957 l -3.45e-4,-0.704292 h -0.315355 -0.315354 v -0.609686 -0.609686 h 0.315354 0.315355 v -0.630709 -0.630709 h 0.798899 0.798898 v 0.630709 0.630709 h 0.588662 0.588662 v 0.6085 0.608499 l -0.57815,0.0117 -0.57815,0.0117 v 0.735827 c 0,0.404706 0.0147,0.788448 0.03266,0.852762 0.07001,0.250621 0.483042,0.356448 0.865093,0.221653 l 0.172503,-0.06086 0.05719,0.197516 c 0.03145,0.108635 0.101979,0.373764 0.156724,0.589178 0.11297,0.444518 0.126903,0.413189 -0.246775,0.554844 -0.396914,0.150463 -0.861959,0.193187 -1.310705,0.120414 z"
     id="path697" />
  <path
     style="fill:#000000;stroke-width:0.0420473"
     d="m 63.722675,20.515408 c -0.373829,-0.03531 -0.600112,-0.103266 -0.945833,-0.284042 -1.092754,-0.571396 -1.513481,-1.910434 -0.950609,-3.025478 0.260616,-0.516278 0.763011,-0.931956 1.364233,-1.128755 0.291063,-0.09527 0.416209,-0.112274 0.82654,-0.112274 0.410331,0 0.535476,0.017 0.82654,0.112274 0.982067,0.321463 1.61096,1.169139 1.61096,2.171393 0,0.603248 -0.226722,1.152873 -0.65049,1.576936 -0.52504,0.525405 -1.256456,0.767863 -2.081341,0.689946 z m 0.602277,-1.339025 c 0.162145,-0.06165 0.40336,-0.293894 0.501007,-0.48238 0.124148,-0.23964 0.123016,-0.653474 -0.0025,-0.89576 -0.180248,-0.34807 -0.443567,-0.516805 -0.806502,-0.516805 -0.525754,0 -0.898148,0.400979 -0.898148,0.967088 0,0.400711 0.191503,0.719832 0.540746,0.901098 0.140054,0.07269 0.505842,0.0874 0.665348,0.02676 z"
     id="path736" />
  <path
     style="fill:#000000;stroke-width:0.0420473"
     d="m 18.87133,14.029628 c -2.409452,-1.276687 -4.390743,-2.33117 -4.402868,-2.343296 -0.01718,-0.01718 4.863739,-2.6531433 8.308568,-4.487072 l 0.496147,-0.2641348 v 1.2735996 1.2735996 l -2.144506,1.0715936 c -1.179478,0.589376 -2.139259,1.087334 -2.132847,1.106571 0.0064,0.01924 0.971441,0.518899 2.144507,1.110357 l 2.132846,1.07538 v 1.255086 c 0,0.690297 -0.0047,1.253844 -0.01051,1.252326 -0.0058,-0.0015 -1.981883,-1.047322 -4.391336,-2.32401 z"
     id="path775" />
  <path
     style="fill:#000000;stroke-width:0.0420473"
     d="m 13.651888,9.6246122 c 0.01175,-0.032369 0.660965,-2.1780364 1.442696,-4.7681497 0.781731,-2.5901133 1.428715,-4.71788504 1.437742,-4.72838157 0.02168,-0.0252049 1.779271,1.73161977 1.779271,1.77849297 0,0.019921 -0.333511,1.0473354 -0.741134,2.2831428 -0.407624,1.2358072 -0.732084,2.2559725 -0.721023,2.2670335 0.01106,0.011061 1.029072,-0.3113661 2.262246,-0.7165057 1.233174,-0.4051391 2.262621,-0.7366165 2.28766,-0.7366165 0.02504,0 0.439044,0.3938537 0.920011,0.87523 l 0.874486,0.8752304 -0.496436,0.1523862 c -0.27304,0.083812 -2.369643,0.7294604 -4.659118,1.4347735 -2.289475,0.7053131 -4.217826,1.2958488 -4.285226,1.3123019 -0.09539,0.023286 -0.117809,0.016874 -0.101175,-0.028938 z"
     id="path814" />
  <path
     style="fill:#000000;stroke-width:0.0420473"
     d="M 4.8434812,8.1891269 0.10017939,6.7537714 1.0015362,5.8524145 1.9028929,4.9510576 4.1863882,5.7123663 C 5.4423108,6.1310863 6.4744399,6.4691188 6.4800086,6.46355 6.4855778,6.4579813 6.1510659,5.4224418 5.7366495,4.1623511 L 4.9831649,1.8712774 5.8541275,0.99957343 C 6.3331568,0.52013626 6.7382211,0.14167175 6.7542705,0.15854117 6.77032,0.17541058 7.4291737,2.2894752 8.2183909,4.8564625 c 0.7892168,2.5669873 1.4430245,4.6909013 1.4529056,4.7198088 0.00988,0.028907 -0.00509,0.051581 -0.033274,0.050385 C 9.609841,9.625462 7.4522972,8.9785724 4.8434812,8.1891269 Z"
     id="path853" />
  <path
     style="fill:#000000;stroke-width:0.0420473"
     d="m 0.02188669,15.081507 8.6304e-4,-1.268971 2.14354897,-1.085107 c 1.1789519,-0.596809 2.143549,-1.092013 2.143549,-1.100453 0,-0.0084 -0.964834,-0.504049 -2.1440754,-1.101352 L 0.02169681,9.4396176 0.02136023,8.1853055 0.02102365,6.9309933 0.36791383,7.118083 C 0.55870342,7.2209822 1.0553871,7.4850053 1.4716553,7.7048008 8.673164,11.507299 8.8629247,11.608182 8.8435539,11.623907 c -0.00749,0.0061 -0.3163626,0.17203 -0.6863788,0.368772 -0.3700162,0.196742 -0.9376546,0.499663 -1.2614188,0.673156 -0.3237642,0.173495 -1.9226126,1.029371 -3.5529964,1.901949 -1.6303838,0.872577 -3.0447497,1.630647 -3.14303525,1.684599 l -0.178701,0.0981 z"
     id="path892" />
  <path
     style="fill:#000000;stroke-width:0.0420473"
     d="M 5.8381028,22.278842 4.9508646,21.391604 5.7069775,19.123692 C 6.12284,17.876341 6.452862,16.845552 6.4403601,16.83305 c -0.012502,-0.0125 -1.0345182,0.310326 -2.2711467,0.717396 -1.2366286,0.40707 -2.2644959,0.740127 -2.2841496,0.740127 -0.019654,0 -0.4313069,-0.39591 -0.91478506,-0.879799 l -0.87905129,-0.8798 0.22769368,-0.06705 c 0.12523155,-0.03688 2.27119217,-0.697797 4.76880147,-1.468706 2.4976093,-0.77091 4.5453559,-1.398593 4.5505474,-1.394852 0.016256,0.01171 -2.8553598,9.502978 -2.8849006,9.535172 -0.015416,0.0168 -0.4272854,-0.368711 -0.9152666,-0.856692 z"
     id="path931" />
  <path
     style="fill:#000000;stroke-width:0.0420473"
     d="m 6.9588272,23.238296 c 0,-0.0076 0.9952401,-1.895019 2.2116447,-4.194217 1.2164041,-2.299198 2.2626051,-4.280715 2.3248911,-4.40337 l 0.113247,-0.223011 2.203324,4.112385 c 1.211829,2.261812 2.276994,4.249564 2.367035,4.417228 l 0.16371,0.304843 h -1.275913 -1.275913 l -1.071546,-2.144412 c -0.589351,-1.179427 -1.081156,-2.14432 -1.0929,-2.144207 -0.01741,1.68e-4 -1.876286,3.67854 -2.0982059,4.151965 l -0.064057,0.136654 H 8.2114857 c -0.6889621,0 -1.2526585,-0.0062 -1.2526585,-0.01386 z"
     id="path970" />
  <path
     style="fill:#000000;stroke-width:0.0420473"
     d="m 15.060323,18.412694 c -0.805346,-2.615304 -1.45813,-4.759607 -1.450632,-4.765117 0.0075,-0.0055 1.15837,0.336763 2.557494,0.760607 1.399123,0.423845 2.979051,0.902273 3.510949,1.063175 2.533793,0.766485 3.487157,1.057467 3.497044,1.067354 0.0059,0.0059 -0.390605,0.411511 -0.881169,0.901309 l -0.891936,0.890543 -2.290283,-0.753614 c -1.259656,-0.414487 -2.294733,-0.749165 -2.30017,-0.743727 -0.0054,0.0054 0.329258,1.040383 0.743767,2.299879 l 0.753653,2.289994 -0.870828,0.872481 c -0.478955,0.479865 -0.880457,0.872421 -0.892226,0.872348 -0.01177,-7.4e-5 -0.680318,-2.139928 -1.485663,-4.755232 z"
     id="path1009" />
</svg>
