<?xml version="1.0" encoding="utf-8"?>
<svg xmlns="http://www.w3.org/2000/svg" id="a" viewBox="0 0 98.685 23.287">
  <polygon points="16.382 .001 13.835 .001 11.655 4.314 9.491 0 6.905 0 11.675 8.9 16.382 .001" style="fill:#e20613;"/>
  <polygon points="23.226 6.761 21.426 4.96 16.834 6.469 18.355 1.889 16.526 .06 13.605 9.725 23.226 6.761" style="fill:#3c3c3b;"/>
  <polygon points="23.286 16.382 23.286 13.835 18.973 11.656 23.286 9.491 23.287 6.905 14.387 11.675 23.286 16.382" style="fill:#3c3c3b;"/>
  <polygon points="16.525 23.226 18.326 21.426 16.817 16.834 21.398 18.355 23.227 16.526 13.561 13.605 16.525 23.226" style="fill:#3c3c3b;"/>
  <polygon points="6.905 23.286 9.452 23.286 11.631 18.973 13.796 23.286 16.381 23.287 11.612 14.387 6.905 23.286" style="fill:#3c3c3b;"/>
  <polygon points=".061 16.525 1.861 18.326 6.452 16.817 4.932 21.398 6.76 23.227 9.681 13.562 .061 16.525" style="fill:#3c3c3b;"/>
  <polygon points=".001 6.905 .001 9.452 4.314 11.631 0 13.796 0 16.381 8.9 11.612 .001 6.905" style="fill:#3c3c3b;"/>
  <polygon points="6.761 .061 4.96 1.861 6.469 6.453 1.889 4.932 .06 6.76 9.725 9.681 6.761 .061" style="fill:#3c3c3b;"/>
  <polygon points="27.129 2.847 27.129 5.158 28.273 5.158 30.927 12.948 37.463 12.948 40.322 5.154 41.466 5.154 41.466 2.847 34.481 2.847 34.481 5.154 35.584 5.154 34.321 9.818 32.451 2.847 27.129 2.847" style="fill:#3c3c3b; fill-rule:evenodd;"/>
  <path d="M47.674,4.821l-.657,3.806h1.488l-.831-3.806ZM40.388,10.645h1.196l2.493-7.798h7.302l2.497,7.798h1.196l.002,2.303h-.096l-5.604-.028-.524-2.275h-2.241l-.533,2.303h-5.691l.003-2.303Z" style="fill:#3c3c3b; fill-rule:evenodd;"/>
  <path d="M98.685,16.049h-1.704l-.922,2.417-.921-2.417h-1.705l1.809,4.391h1.635l1.809-4.391ZM93.218,16.049h-1.626v4.391h1.626v-4.391ZM92.401,13.875c-.181.001-.339.044-.477.126-.136.081-.242.189-.319.322-.077.133-.116.28-.118.439.002.169.041.32.118.453.077.133.182.238.319.316.137.077.296.116.477.117.178-.001.336-.041.472-.117.136-.078.244-.183.322-.316.078-.133.117-.284.118-.453-.001-.16-.04-.306-.118-.439-.078-.134-.186-.241-.322-.322-.136-.082-.294-.125-.472-.126M91.055,19.022c-.05.026-.106.05-.169.071-.062.02-.128.038-.194.049-.067.013-.131.019-.193.019-.166.001-.294-.04-.385-.122-.09-.082-.135-.219-.136-.409v-1.313h1.165v-1.27h-1.165v-1.261h-1.626v1.261h-.67v1.27h.67v1.495c.001.37.069.684.204.946.136.261.336.461.6.6.262.139.586.209.969.21.202-.001.384-.02.545-.056.161-.036.3-.078.417-.128.117-.049.215-.096.29-.138l-.322-1.226ZM85.319,19.214c-.164-.002-.315-.045-.45-.129-.135-.084-.242-.197-.321-.342-.081-.145-.124-.311-.125-.494.001-.187.044-.354.125-.497.079-.144.187-.259.321-.342.135-.082.285-.125.45-.126.164.001.314.044.449.126.135.083.242.197.323.342.079.144.122.311.123.497-.001.184-.044.349-.123.494-.081.145-.189.258-.323.342-.135.084-.286.128-.449.129M85.319,15.927c-.338.001-.654.056-.949.167-.296.11-.557.268-.783.472-.227.205-.404.45-.533.733-.128.284-.193.6-.196.949.003.346.068.663.196.945.129.283.306.526.533.73.226.203.487.361.783.471.295.11.612.165.949.166.338-.001.653-.056.949-.166.296-.11.557-.268.785-.471.226-.204.403-.447.531-.73.128-.283.193-.599.196-.945-.003-.349-.068-.665-.196-.949-.129-.284-.305-.529-.531-.733-.228-.204-.489-.362-.785-.472-.295-.11-.611-.165-.949-.167M80.948,15.918c-.226,0-.433.032-.623.094-.189.063-.36.149-.511.264-.152.114-.284.25-.397.407-.093-.162-.21-.302-.352-.415-.14-.114-.3-.201-.478-.261-.178-.06-.371-.09-.579-.09-.286.001-.534.052-.747.152-.212.1-.393.238-.539.413v-.435h-1.626v4.391h1.626v-2.183c0-.187.029-.345.086-.477.056-.133.134-.233.237-.304.103-.069.225-.106.364-.106.121,0,.226.027.319.082.093.055.165.132.217.232.054.1.08.217.081.354v2.4h1.627v-2.183c.001-.187.03-.345.09-.477.059-.133.14-.233.246-.304.106-.069.227-.106.368-.106.117,0,.222.027.313.082.091.055.162.132.216.232.052.1.078.217.08.354v2.4h1.626v-2.739c-.001-.271-.042-.515-.123-.733-.081-.219-.196-.406-.344-.562-.146-.157-.32-.277-.52-.359-.2-.084-.419-.127-.656-.128M72.35,19.214c-.164-.002-.314-.045-.449-.129-.135-.084-.242-.197-.321-.342-.081-.145-.124-.311-.125-.494.001-.187.044-.354.125-.497.079-.144.187-.259.321-.342.135-.082.285-.125.449-.126.164.001.314.044.45.126.135.083.242.197.323.342.079.144.122.311.123.497-.001.184-.043.349-.123.494-.081.145-.189.258-.323.342-.135.084-.286.128-.45.129M72.35,15.927c-.338.001-.653.056-.949.167-.296.11-.557.268-.783.472-.227.205-.404.45-.533.733-.128.284-.193.6-.196.949.003.346.068.663.196.945.129.283.306.526.533.73.226.203.487.361.783.471.295.11.611.165.949.166.338-.001.654-.056.949-.166.296-.11.557-.268.785-.471.226-.204.403-.447.531-.73.128-.283.193-.599.196-.945-.003-.349-.069-.665-.196-.949-.129-.284-.306-.529-.531-.733-.228-.204-.489-.362-.785-.472-.295-.11-.611-.165-.949-.167M69.753,19.022c-.051.026-.106.05-.17.071-.062.02-.127.038-.194.049-.067.013-.131.019-.193.019-.166.001-.294-.04-.386-.122-.09-.082-.135-.219-.136-.409v-1.313h1.165v-1.27h-1.165v-1.261h-1.627v1.261h-.67v1.27h.67v1.495c.001.37.07.684.204.946.136.261.336.461.6.6.262.139.587.209.969.21.203-.001.384-.02.545-.056.161-.036.3-.078.417-.128.117-.049.214-.096.29-.138l-.321-1.226ZM64.016,19.214c-.164-.002-.314-.045-.449-.129-.135-.084-.242-.197-.322-.342-.081-.145-.123-.311-.124-.494.001-.187.043-.354.124-.497.08-.144.187-.259.322-.342.135-.082.285-.125.449-.126.164.001.314.044.45.126.135.083.241.197.323.342.08.144.122.311.123.497-.001.184-.043.349-.123.494-.081.145-.188.258-.323.342-.135.084-.286.128-.45.129M64.016,15.927c-.338.001-.653.056-.949.167-.296.11-.557.268-.783.472-.228.205-.405.45-.533.733-.128.284-.193.6-.196.949.003.346.068.663.196.945.129.283.306.526.533.73.226.203.487.361.783.471.296.11.611.165.949.166.338-.001.653-.056.949-.166.296-.11.557-.268.784-.471.226-.204.403-.447.532-.73.128-.283.193-.599.196-.945-.003-.349-.068-.665-.196-.949-.129-.284-.306-.529-.532-.733-.227-.204-.488-.362-.784-.472-.296-.11-.611-.165-.949-.167" style="fill:#3c3c3b;"/>
  <path d="M62.108,10.582h2.061v-5.428h-2.061v5.428ZM56.113,12.948v-2.303h1.146v-5.473l-1.146-.022v-2.302h9.316c3.912,0,3.545,2.476,3.545,2.476v5.099c0,1.927-1.581,2.472-3.255,2.525h-9.606Z" style="fill:#3c3c3b; fill-rule:evenodd;"/>
  <polygon points="71.39 5.143 70.28 5.143 70.28 2.847 82.33 2.847 82.33 6.203 78.214 6.203 78.214 5.154 76.129 5.154 76.129 6.829 79.487 6.829 79.487 8.814 76.129 8.813 76.129 10.582 78.214 10.582 78.214 9.41 82.562 9.41 82.562 12.948 70.28 12.948 70.28 10.583 71.389 10.582 71.39 5.143" style="fill:#3c3c3b; fill-rule:evenodd;"/>
  <polygon points="89.373 2.846 92.999 7.699 92.999 2.846 98.682 2.846 98.682 5.153 97.49 5.153 97.49 10.643 98.685 10.643 98.685 12.948 93.049 12.948 89.482 8.06 89.482 12.948 83.762 12.948 83.762 10.642 84.906 10.642 84.906 5.154 83.778 5.154 83.778 2.846 89.373 2.846" style="fill:#3c3c3b; fill-rule:evenodd;"/>
</svg>