<?xml version="1.0" encoding="UTF-8" standalone="no"?>
<!-- Created with Inkscape (http://www.inkscape.org/) -->

<svg
   width="250mm"
   height="250mm"
   viewBox="0 0 250 250"
   version="1.1"
   id="svg2885"
   inkscape:version="1.1.2 (b8e25be833, 2022-02-05)"
   sodipodi:docname="VadenLogoLink.svg"
   xmlns:inkscape="http://www.inkscape.org/namespaces/inkscape"
   xmlns:sodipodi="http://sodipodi.sourceforge.net/DTD/sodipodi-0.dtd"
   xmlns="http://www.w3.org/2000/svg"
   xmlns:svg="http://www.w3.org/2000/svg">
  <sodipodi:namedview
     id="namedview2887"
     pagecolor="#505050"
     bordercolor="#eeeeee"
     borderopacity="1"
     inkscape:pageshadow="0"
     inkscape:pageopacity="0"
     inkscape:pagecheckerboard="0"
     inkscape:document-units="mm"
     showgrid="false"
     inkscape:zoom="0.77771465"
     inkscape:cx="18.001461"
     inkscape:cy="560.61693"
     inkscape:window-width="2560"
     inkscape:window-height="1369"
     inkscape:window-x="-8"
     inkscape:window-y="-8"
     inkscape:window-maximized="1"
     inkscape:current-layer="layer1"
     inkscape:snap-page="false"
     units="mm"
     width="250mm" />
  <defs
     id="defs2882" />
  <g
     inkscape:label="Katman 1"
     inkscape:groupmode="layer"
     id="layer1">
    <polygon
       points="11.675,8.9 16.382,0.001 13.835,0.001 11.655,4.314 9.491,0 6.905,0 "
       style="fill:#e20613"
       id="polygon42"
       transform="scale(10.735604)" />
    <polygon
       points="13.605,9.725 23.226,6.761 21.426,4.96 16.834,6.469 18.355,1.889 16.526,0.06 "
       style="fill:#3c3c3b"
       id="polygon44"
       transform="scale(10.735604)" />
    <polygon
       points="14.387,11.675 23.286,16.382 23.286,13.835 18.973,11.656 23.286,9.491 23.287,6.905 "
       style="fill:#3c3c3b"
       id="polygon46"
       transform="scale(10.735604)" />
    <polygon
       points="13.561,13.605 16.525,23.226 18.326,21.426 16.817,16.834 21.398,18.355 23.227,16.526 "
       style="fill:#3c3c3b"
       id="polygon48"
       transform="scale(10.735604)" />
    <polygon
       points="11.612,14.387 6.905,23.286 9.452,23.286 11.631,18.973 13.796,23.286 16.381,23.287 "
       style="fill:#3c3c3b"
       id="polygon50"
       transform="scale(10.735604)" />
    <polygon
       points="9.681,13.562 0.061,16.525 1.861,18.326 6.452,16.817 4.932,21.398 6.76,23.227 "
       style="fill:#3c3c3b"
       id="polygon52"
       transform="scale(10.735604)" />
    <polygon
       points="8.9,11.612 0.001,6.905 0.001,9.452 4.314,11.631 0,13.796 0,16.381 "
       style="fill:#3c3c3b"
       id="polygon54"
       transform="scale(10.735604)" />
    <polygon
       points="9.725,9.681 6.761,0.061 4.96,1.861 6.469,6.453 1.889,4.932 0.06,6.76 "
       style="fill:#3c3c3b"
       id="polygon56"
       transform="scale(10.735604)" />
    <path
       style="fill:#ffffff;stroke-width:0.451404"
       d="m 202.59512,150.6167 c -25.8668,-13.706 -47.1373,-25.0266 -47.2676,-25.1568 -0.203,-0.203 52.2154,-28.483199 89.1976,-48.1717 l 5.3263,-2.8362 V 88.124701 101.7975 l -23.0225,11.5043 c -12.6624,6.3274 -22.9662,11.6732 -22.8972,11.8797 0.08,0.203 10.4291,5.5706 23.0225,11.9203 l 22.8972,11.545 v 13.4743 c 0,7.4107 -0.04,13.4605 -0.122,13.4443 -0.08,-0.02 -21.2766,-11.2435 -47.1435,-24.9495 z"
       id="path775" />
    <path
       style="fill:#ffffff;stroke-width:0.451404"
       d="m 146.56122,103.3259 c 0.122,-0.365 7.0958,-23.382399 15.4885,-51.1888 8.3922,-27.8064 15.3379,-50.6492 15.4349,-50.762 0.243,-0.284 19.1013,18.5901 19.1013,19.0932 0,0.203 -3.5787,11.2439 -7.9564,24.5109 -4.3761,13.2669 -7.8595,24.2191 -7.7406,24.338 0.122,0.122 11.0479,-3.3434 24.2864,-7.6923 13.239,-4.3493 24.291,-7.9078 24.5596,-7.9078 0.284,0 4.7132,4.228 9.8769,9.3961 l 9.3879,9.396 -5.3292,1.6352 c -2.9295,0.901 -25.4396,7.831101 -50.0186,15.403301 -24.579,7.5718 -45.2811,13.911699 -46.0045,14.088199 -1.0225,0.243 -1.266,0.162 -1.0874,-0.325 z"
       id="path814" />
    <path
       style="fill:#ffffff;stroke-width:0.451404"
       d="M 51.997504,87.915401 1.0757,72.506 l 9.6764,-9.6769 9.6765,-9.6764 24.514904,8.1731 c 13.4828,4.495 24.5636,8.1241 24.6232,8.0644 0.04,-0.04 -3.5301,-11.1769 -7.9804,-24.7048 l -8.0891,-24.5961 9.3502,-9.3583 c 5.143,-5.147 9.4914,-9.2102 9.6639,-9.0289 0.162,0.162 7.2455,22.8769 15.7181,50.435 8.4726,27.558101 15.491696,50.3595 15.597616,50.6699 0.122,0.325 -0.04,0.552 -0.365,0.54 -0.284,-0.01 -23.465296,-6.957399 -51.472496,-15.432499 z"
       id="path853" />
    <path
       style="fill:#ffffff;stroke-width:0.451404"
       d="m 0.2349,161.9093 0.01,-13.6233 23.012404,-11.6492 c 12.6567,-6.4073 23.012,-11.7235 23.012,-11.8144 0,-0.08 -10.3582,-5.4111 -23.0177,-11.8237 L 0.2335,101.3402 0.2299,87.874401 0.2262,74.4086 3.951,76.4171 c 2.0491,1.1036 7.3807,3.939901 11.8497,6.298501 77.312204,40.822199 79.349504,41.905199 79.141704,42.073999 -0.08,0.08 -3.3961,1.8462 -7.3689,3.9601 -3.9723,2.114 -10.0664,5.3645 -13.5421,7.2269 -3.4773,1.8625 -20.6403,11.0508 -38.1434,20.4185 C 18.385,165.7627 3.2008,173.901 2.1454,174.4804 l -1.9192,1.0549 z"
       id="path892" />
    <path
       style="fill:#ffffff;stroke-width:0.451404"
       d="m 62.675404,239.1768 -9.5247,-9.5251 8.1171,-24.3473 c 4.4645,-13.3912 8.0076,-24.4573 7.8733,-24.5916 -0.122,-0.122 -11.1059,3.3312 -24.3823,7.702 -13.2759,4.37 -24.310404,7.9455 -24.521404,7.9455 -0.203,0 -4.6304,-4.2503 -9.8209,-9.4452 l -9.437,-9.4451 2.4426,-0.718 c 1.3431,-0.406 24.382704,-7.4915 51.196204,-15.7677 26.8131,-8.2761 48.796896,-15.0145 48.852896,-14.9743 0.162,0.122 -30.654396,102.0202 -30.971296,102.3659 -0.162,0.162 -4.587,-3.9602 -9.8262,-9.1973 z"
       id="path931" />
    <path
       style="fill:#ffffff;stroke-width:0.451404"
       d="m 74.707204,249.4773 c 0,-0.08 10.6844,-20.3441 23.7432,-45.0274 13.058816,-24.6833 24.290516,-45.9563 24.959216,-47.273 l 1.2173,-2.3939 23.6543,44.149 c 13.0097,24.282 24.4447,45.6215 25.4116,47.4218 l 1.7569,3.2704 h -13.6975 -13.6978 l -11.5036,-23.0213 c -6.3274,-12.662 -11.607,-23.0206 -11.7332,-23.0193 -0.203,0.002 -20.1429,39.4913 -22.52552,44.5738 l -0.686,1.4648 H 88.158104 c -7.3965,0 -13.4479,-0.08 -13.4479,-0.162 z"
       id="path970" />
    <path
       style="fill:#ffffff;stroke-width:0.451404"
       d="m 161.68162,197.6713 c -8.6458,-28.0766 -15.654,-51.0971 -15.5732,-51.1564 0.08,-0.04 12.4355,3.6153 27.4562,8.1658 15.0202,4.5502 31.9816,9.6862 37.6922,11.4135 27.2018,8.2287 37.4366,11.3526 37.5429,11.459 0.08,0.08 -4.1935,4.4178 -9.4602,9.676 l -9.5754,9.5604 -24.5875,-8.0904 c -13.523,-4.4499 -24.6355,-8.0428 -24.6939,-7.9844 -0.04,0.04 3.5341,11.1692 7.9849,24.6906 l 8.0911,24.5843 -9.349,9.3669 c -5.1417,5.1514 -9.452,9.366 -9.5786,9.3652 -0.122,-8e-4 -7.3036,-22.9735 -15.9495,-51.0505 z"
       id="path1009" />
  </g>
</svg>
